<svg xmlns="http://www.w3.org/2000/svg" viewBox="0 0 3200 1800" font-family="Inter, -apple-system, sans-serif">
  <defs>
    <linearGradient id="c-regent" x1="0" y1="1" x2="0" y2="0">
      <stop offset="0%" stop-color="#7c3aed"/>
      <stop offset="100%" stop-color="#a78bfa"/>
    </linearGradient>
    <filter id="regent-glow">
      <feGaussianBlur stdDeviation="3" result="blur"/>
      <feMerge><feMergeNode in="blur"/><feMergeNode in="SourceGraphic"/></feMerge>
    </filter>
  </defs>

  <rect width="3200" height="1800" fill="#ffffff"/>

  <!-- ═══════ HEADER ═══════ -->
  <text x="1600" y="110" text-anchor="middle" fill="#0f172a" font-size="68" font-weight="800" letter-spacing="-1.5">Grande Regent</text>
  <text x="1600" y="160" text-anchor="middle" fill="#475569" font-size="26" font-weight="400">Performance across reasoning, code, agent, long-context, and grounding benchmarks</text>

  <line x1="180" y1="215" x2="3020" y2="215" stroke="#e2e8f0" stroke-width="1.5"/>

  <!-- ═══════ LEGEND ═══════ -->
  <g transform="translate(520, 260)" font-size="19" font-weight="600">
    <g>
      <rect x="0" y="0" width="30" height="18" rx="4" fill="url(#c-regent)"/>
      <text x="42" y="16" fill="#6d28d9">Grande Regent</text>
    </g>
    <g transform="translate(280, 0)">
      <rect x="0" y="0" width="30" height="18" rx="4" fill="#10b981"/>
      <text x="42" y="16" fill="#475569">GPT-5.4</text>
    </g>
    <g transform="translate(450, 0)">
      <rect x="0" y="0" width="30" height="18" rx="4" fill="#f97316"/>
      <text x="42" y="16" fill="#475569">Claude Opus 4.7</text>
    </g>
    <g transform="translate(690, 0)">
      <rect x="0" y="0" width="30" height="18" rx="4" fill="#3b82f6"/>
      <text x="42" y="16" fill="#475569">Llama 4 Maverick</text>
    </g>
    <g transform="translate(940, 0)">
      <rect x="0" y="0" width="30" height="18" rx="4" fill="#ef4444"/>
      <text x="42" y="16" fill="#475569">Qwen 3.6</text>
    </g>
    <g transform="translate(1120, 0)">
      <rect x="0" y="0" width="30" height="18" rx="4" fill="#06b6d4"/>
      <text x="42" y="16" fill="#475569">DeepSeek V4</text>
    </g>
    <g transform="translate(1350, 0)">
      <rect x="0" y="0" width="30" height="18" rx="4" fill="#eab308"/>
      <text x="42" y="16" fill="#475569">Kimi K2.6</text>
    </g>
  </g>

  <!-- Chart region: x 220 to 3000 (2780 wide), y 380 to 1480 (1100 tall = 100pts × 11) -->
  <!-- Scale: score × 11 = bar height -->

  <!-- Gridlines (every 10) -->
  <g stroke="#e2e8f0" stroke-width="1.5" stroke-dasharray="4,4">
    <line x1="220" y1="1480" x2="3000" y2="1480"/>
    <line x1="220" y1="1370" x2="3000" y2="1370"/>
    <line x1="220" y1="1260" x2="3000" y2="1260"/>
    <line x1="220" y1="1150" x2="3000" y2="1150"/>
    <line x1="220" y1="1040" x2="3000" y2="1040"/>
    <line x1="220" y1="930" x2="3000" y2="930"/>
    <line x1="220" y1="820" x2="3000" y2="820"/>
    <line x1="220" y1="710" x2="3000" y2="710"/>
    <line x1="220" y1="600" x2="3000" y2="600"/>
    <line x1="220" y1="490" x2="3000" y2="490"/>
    <line x1="220" y1="380" x2="3000" y2="380"/>
  </g>

  <!-- Y-axis labels -->
  <g font-size="18" fill="#94a3b8" text-anchor="end">
    <text x="205" y="1486">0</text>
    <text x="205" y="1376">10</text>
    <text x="205" y="1266">20</text>
    <text x="205" y="1156">30</text>
    <text x="205" y="1046">40</text>
    <text x="205" y="936">50</text>
    <text x="205" y="826">60</text>
    <text x="205" y="716">70</text>
    <text x="205" y="606">80</text>
    <text x="205" y="496">90</text>
    <text x="205" y="386">100</text>
  </g>

  <line x1="220" y1="1480" x2="3000" y2="1480" stroke="#cbd5e1" stroke-width="3"/>

  <!-- 8 groups | bar width 32, gap 3 → group 32×7+3×6 = 242. Group centers 455, 785, 1115, 1445, 1775, 2105, 2435, 2765 (330px apart). -->
  <!-- Bar x offsets from center: -121, -86, -51, -16, +19, +54, +89 -->

  <!-- MMLU-Pro (center 455) | R 89.5, GPT 92.3, Opus 90.0, Llama 80.5, Qwen 88.0, DS 86.9, Kimi 87.1 -->
  <g>
    <rect x="334" y="495" width="32" height="985" fill="url(#c-regent)" rx="4" filter="url(#regent-glow)"/>
    <rect x="369" y="464" width="32" height="1016" fill="#10b981" rx="4"/>
    <rect x="404" y="490" width="32" height="990" fill="#f97316" rx="4"/>
    <rect x="439" y="595" width="32" height="885" fill="#3b82f6" rx="4"/>
    <rect x="474" y="512" width="32" height="968" fill="#ef4444" rx="4"/>
    <rect x="509" y="524" width="32" height="956" fill="#06b6d4" rx="4"/>
    <rect x="544" y="522" width="32" height="958" fill="#eab308" rx="4"/>
    <text x="350" y="483" text-anchor="middle" fill="#6d28d9" font-size="16" font-weight="700">89.5</text>
    <text x="385" y="452" text-anchor="middle" fill="#047857" font-size="14" font-weight="600">92.3</text>
    <text x="420" y="478" text-anchor="middle" fill="#c2410c" font-size="14" font-weight="600">90.0</text>
    <text x="455" y="583" text-anchor="middle" fill="#1d4ed8" font-size="14" font-weight="600">80.5</text>
    <text x="490" y="500" text-anchor="middle" fill="#b91c1c" font-size="14" font-weight="600">88.0</text>
    <text x="525" y="512" text-anchor="middle" fill="#0e7490" font-size="14" font-weight="600">86.9</text>
    <text x="560" y="510" text-anchor="middle" fill="#a16207" font-size="14" font-weight="600">87.1</text>
    <text x="455" y="1555" text-anchor="middle" fill="#334155" font-size="22" font-weight="600">MMLU-Pro</text>
  </g>

  <!-- GPQA Diamond (center 785) | R 85.0, GPT 83.9, Opus 94.2, Llama 70.0, Qwen 87.8, DS 75.0, Kimi 90.5 -->
  <g>
    <rect x="664" y="545" width="32" height="935" fill="url(#c-regent)" rx="4" filter="url(#regent-glow)"/>
    <rect x="699" y="557" width="32" height="923" fill="#10b981" rx="4"/>
    <rect x="734" y="444" width="32" height="1036" fill="#f97316" rx="4"/>
    <rect x="769" y="710" width="32" height="770" fill="#3b82f6" rx="4"/>
    <rect x="804" y="514" width="32" height="966" fill="#ef4444" rx="4"/>
    <rect x="839" y="655" width="32" height="825" fill="#06b6d4" rx="4"/>
    <rect x="874" y="485" width="32" height="995" fill="#eab308" rx="4"/>
    <text x="680" y="533" text-anchor="middle" fill="#6d28d9" font-size="16" font-weight="700">85.0</text>
    <text x="715" y="545" text-anchor="middle" fill="#047857" font-size="14" font-weight="600">83.9</text>
    <text x="750" y="432" text-anchor="middle" fill="#c2410c" font-size="14" font-weight="600">94.2</text>
    <text x="785" y="698" text-anchor="middle" fill="#1d4ed8" font-size="14" font-weight="600">70.0</text>
    <text x="820" y="502" text-anchor="middle" fill="#b91c1c" font-size="14" font-weight="600">87.8</text>
    <text x="855" y="643" text-anchor="middle" fill="#0e7490" font-size="14" font-weight="600">75.0</text>
    <text x="890" y="473" text-anchor="middle" fill="#a16207" font-size="14" font-weight="600">90.5</text>
    <text x="785" y="1555" text-anchor="middle" fill="#334155" font-size="22" font-weight="600">GPQA Diamond</text>
  </g>

  <!-- MATH-500 (center 1115) | R 92.0, GPT 94.8, Opus 93.0, Llama 78.0, Qwen 94.1, DS 88.6, Kimi 98.0 -->
  <g>
    <rect x="994" y="468" width="32" height="1012" fill="url(#c-regent)" rx="4" filter="url(#regent-glow)"/>
    <rect x="1029" y="437" width="32" height="1043" fill="#10b981" rx="4"/>
    <rect x="1064" y="457" width="32" height="1023" fill="#f97316" rx="4"/>
    <rect x="1099" y="622" width="32" height="858" fill="#3b82f6" rx="4"/>
    <rect x="1134" y="445" width="32" height="1035" fill="#ef4444" rx="4"/>
    <rect x="1169" y="505" width="32" height="975" fill="#06b6d4" rx="4"/>
    <rect x="1204" y="402" width="32" height="1078" fill="#eab308" rx="4"/>
    <text x="1010" y="456" text-anchor="middle" fill="#6d28d9" font-size="16" font-weight="700">92.0</text>
    <text x="1045" y="425" text-anchor="middle" fill="#047857" font-size="14" font-weight="600">94.8</text>
    <text x="1080" y="445" text-anchor="middle" fill="#c2410c" font-size="14" font-weight="600">93.0</text>
    <text x="1115" y="610" text-anchor="middle" fill="#1d4ed8" font-size="14" font-weight="600">78.0</text>
    <text x="1150" y="433" text-anchor="middle" fill="#b91c1c" font-size="14" font-weight="600">94.1</text>
    <text x="1185" y="493" text-anchor="middle" fill="#0e7490" font-size="14" font-weight="600">88.6</text>
    <text x="1220" y="390" text-anchor="middle" fill="#a16207" font-size="14" font-weight="600">98.0</text>
    <text x="1115" y="1555" text-anchor="middle" fill="#334155" font-size="22" font-weight="600">MATH-500</text>
  </g>

  <!-- HumanEval (center 1445) | R 92.5, GPT 93.1, Opus 91.0, Llama 88.0, Qwen 91.3, DS 92.8, Kimi 93.5 -->
  <g>
    <rect x="1324" y="463" width="32" height="1017" fill="url(#c-regent)" rx="4" filter="url(#regent-glow)"/>
    <rect x="1359" y="456" width="32" height="1024" fill="#10b981" rx="4"/>
    <rect x="1394" y="479" width="32" height="1001" fill="#f97316" rx="4"/>
    <rect x="1429" y="512" width="32" height="968" fill="#3b82f6" rx="4"/>
    <rect x="1464" y="476" width="32" height="1004" fill="#ef4444" rx="4"/>
    <rect x="1499" y="461" width="32" height="1019" fill="#06b6d4" rx="4"/>
    <rect x="1534" y="452" width="32" height="1028" fill="#eab308" rx="4"/>
    <text x="1340" y="451" text-anchor="middle" fill="#6d28d9" font-size="16" font-weight="700">92.5</text>
    <text x="1375" y="444" text-anchor="middle" fill="#047857" font-size="14" font-weight="600">93.1</text>
    <text x="1410" y="467" text-anchor="middle" fill="#c2410c" font-size="14" font-weight="600">91.0</text>
    <text x="1445" y="500" text-anchor="middle" fill="#1d4ed8" font-size="14" font-weight="600">88.0</text>
    <text x="1480" y="464" text-anchor="middle" fill="#b91c1c" font-size="14" font-weight="600">91.3</text>
    <text x="1515" y="449" text-anchor="middle" fill="#0e7490" font-size="14" font-weight="600">92.8</text>
    <text x="1550" y="440" text-anchor="middle" fill="#a16207" font-size="14" font-weight="600">93.5</text>
    <text x="1445" y="1555" text-anchor="middle" fill="#334155" font-size="22" font-weight="600">HumanEval</text>
  </g>

  <!-- SWE-bench Verified (center 1775) | R 78.5, GPT 52.7, Opus 87.6, Llama 43.0, Qwen 77.2, DS 59.2, Kimi 80.2 -->
  <g>
    <rect x="1654" y="617" width="32" height="863" fill="url(#c-regent)" rx="4" filter="url(#regent-glow)"/>
    <rect x="1689" y="900" width="32" height="580" fill="#10b981" rx="4"/>
    <rect x="1724" y="516" width="32" height="964" fill="#f97316" rx="4"/>
    <rect x="1759" y="1007" width="32" height="473" fill="#3b82f6" rx="4"/>
    <rect x="1794" y="631" width="32" height="849" fill="#ef4444" rx="4"/>
    <rect x="1829" y="829" width="32" height="651" fill="#06b6d4" rx="4"/>
    <rect x="1864" y="598" width="32" height="882" fill="#eab308" rx="4"/>
    <text x="1670" y="605" text-anchor="middle" fill="#6d28d9" font-size="16" font-weight="700">78.5</text>
    <text x="1705" y="888" text-anchor="middle" fill="#047857" font-size="14" font-weight="600">52.7</text>
    <text x="1740" y="504" text-anchor="middle" fill="#c2410c" font-size="14" font-weight="600">87.6</text>
    <text x="1775" y="995" text-anchor="middle" fill="#1d4ed8" font-size="14" font-weight="600">43.0</text>
    <text x="1810" y="619" text-anchor="middle" fill="#b91c1c" font-size="14" font-weight="600">77.2</text>
    <text x="1845" y="817" text-anchor="middle" fill="#0e7490" font-size="14" font-weight="600">59.2</text>
    <text x="1880" y="586" text-anchor="middle" fill="#a16207" font-size="14" font-weight="600">80.2</text>
    <text x="1775" y="1555" text-anchor="middle" fill="#334155" font-size="22" font-weight="600">SWE-bench Verified</text>
  </g>

  <!-- Terminal-Bench 2.0 (center 2105) | R 72.0, GPT 65.0, Opus 78.0, Llama 50.0, Qwen 70.0, DS 58.0, Kimi 73.0 -->
  <g>
    <rect x="1984" y="688" width="32" height="792" fill="url(#c-regent)" rx="4" filter="url(#regent-glow)"/>
    <rect x="2019" y="765" width="32" height="715" fill="#10b981" rx="4"/>
    <rect x="2054" y="622" width="32" height="858" fill="#f97316" rx="4"/>
    <rect x="2089" y="930" width="32" height="550" fill="#3b82f6" rx="4"/>
    <rect x="2124" y="710" width="32" height="770" fill="#ef4444" rx="4"/>
    <rect x="2159" y="842" width="32" height="638" fill="#06b6d4" rx="4"/>
    <rect x="2194" y="677" width="32" height="803" fill="#eab308" rx="4"/>
    <text x="2000" y="676" text-anchor="middle" fill="#6d28d9" font-size="16" font-weight="700">72.0</text>
    <text x="2035" y="753" text-anchor="middle" fill="#047857" font-size="14" font-weight="600">65.0</text>
    <text x="2070" y="610" text-anchor="middle" fill="#c2410c" font-size="14" font-weight="600">78.0</text>
    <text x="2105" y="918" text-anchor="middle" fill="#1d4ed8" font-size="14" font-weight="600">50.0</text>
    <text x="2140" y="698" text-anchor="middle" fill="#b91c1c" font-size="14" font-weight="600">70.0</text>
    <text x="2175" y="830" text-anchor="middle" fill="#0e7490" font-size="14" font-weight="600">58.0</text>
    <text x="2210" y="665" text-anchor="middle" fill="#a16207" font-size="14" font-weight="600">73.0</text>
    <text x="2105" y="1555" text-anchor="middle" fill="#334155" font-size="22" font-weight="600">Terminal-Bench 2.0</text>
  </g>

  <!-- RULER 128K (center 2435) | R 98.5, GPT 85.0, Opus 88.0, Llama 72.0, Qwen 78.0, DS 74.0, Kimi 82.0 -->
  <g>
    <rect x="2314" y="397" width="32" height="1083" fill="url(#c-regent)" rx="4" filter="url(#regent-glow)"/>
    <rect x="2349" y="545" width="32" height="935" fill="#10b981" rx="4"/>
    <rect x="2384" y="512" width="32" height="968" fill="#f97316" rx="4"/>
    <rect x="2419" y="688" width="32" height="792" fill="#3b82f6" rx="4"/>
    <rect x="2454" y="622" width="32" height="858" fill="#ef4444" rx="4"/>
    <rect x="2489" y="666" width="32" height="814" fill="#06b6d4" rx="4"/>
    <rect x="2524" y="578" width="32" height="902" fill="#eab308" rx="4"/>
    <text x="2330" y="385" text-anchor="middle" fill="#6d28d9" font-size="16" font-weight="700">98.5</text>
    <text x="2365" y="533" text-anchor="middle" fill="#047857" font-size="14" font-weight="600">85.0</text>
    <text x="2400" y="500" text-anchor="middle" fill="#c2410c" font-size="14" font-weight="600">88.0</text>
    <text x="2435" y="676" text-anchor="middle" fill="#1d4ed8" font-size="14" font-weight="600">72.0</text>
    <text x="2470" y="610" text-anchor="middle" fill="#b91c1c" font-size="14" font-weight="600">78.0</text>
    <text x="2505" y="654" text-anchor="middle" fill="#0e7490" font-size="14" font-weight="600">74.0</text>
    <text x="2540" y="566" text-anchor="middle" fill="#a16207" font-size="14" font-weight="600">82.0</text>
    <text x="2435" y="1555" text-anchor="middle" fill="#6d28d9" font-size="22" font-weight="600">RULER 128K</text>
  </g>

  <!-- HaluEval (center 2765) | R 94.0, GPT 83.0, Opus 87.0, Llama 77.0, Qwen 81.0, DS 78.0, Kimi 76.0 -->
  <g>
    <rect x="2644" y="446" width="32" height="1034" fill="url(#c-regent)" rx="4" filter="url(#regent-glow)"/>
    <rect x="2679" y="567" width="32" height="913" fill="#10b981" rx="4"/>
    <rect x="2714" y="523" width="32" height="957" fill="#f97316" rx="4"/>
    <rect x="2749" y="633" width="32" height="847" fill="#3b82f6" rx="4"/>
    <rect x="2784" y="589" width="32" height="891" fill="#ef4444" rx="4"/>
    <rect x="2819" y="622" width="32" height="858" fill="#06b6d4" rx="4"/>
    <rect x="2854" y="644" width="32" height="836" fill="#eab308" rx="4"/>
    <text x="2660" y="434" text-anchor="middle" fill="#6d28d9" font-size="16" font-weight="700">94.0</text>
    <text x="2695" y="555" text-anchor="middle" fill="#047857" font-size="14" font-weight="600">83.0</text>
    <text x="2730" y="511" text-anchor="middle" fill="#c2410c" font-size="14" font-weight="600">87.0</text>
    <text x="2765" y="621" text-anchor="middle" fill="#1d4ed8" font-size="14" font-weight="600">77.0</text>
    <text x="2800" y="577" text-anchor="middle" fill="#b91c1c" font-size="14" font-weight="600">81.0</text>
    <text x="2835" y="610" text-anchor="middle" fill="#0e7490" font-size="14" font-weight="600">78.0</text>
    <text x="2870" y="632" text-anchor="middle" fill="#a16207" font-size="14" font-weight="600">76.0</text>
    <text x="2765" y="1555" text-anchor="middle" fill="#6d28d9" font-size="22" font-weight="600">HaluEval</text>
  </g>

  <!-- Footer -->
  <line x1="180" y1="1660" x2="3020" y2="1660" stroke="#e2e8f0" stroke-width="1.5"/>
  <text x="180" y="1720" fill="#64748b" font-size="20">Comparative capabilities across frontier flagship models as at April 2026. Higher is better.</text>
  <text x="3020" y="1720" text-anchor="end" fill="#94a3b8" font-size="18">Alchymia Labs · alchymia.ai</text>
</svg>
