<svg xmlns="http://www.w3.org/2000/svg" viewBox="0 0 900 720" font-family="Inter, -apple-system, sans-serif">
  <defs>
    <marker id="arrow" markerWidth="8" markerHeight="6" refX="8" refY="3" orient="auto">
      <path d="M0,0 L8,3 L0,6" fill="#94a3b8"/>
    </marker>
    <marker id="arrow-accent" markerWidth="8" markerHeight="6" refX="8" refY="3" orient="auto">
      <path d="M0,0 L8,3 L0,6" fill="#a78bfa"/>
    </marker>
    <marker id="arrow-green" markerWidth="8" markerHeight="6" refX="8" refY="3" orient="auto">
      <path d="M0,0 L8,3 L0,6" fill="#10b981"/>
    </marker>
  </defs>

  <!-- Background -->
  <rect width="900" height="720" fill="#0f1117" rx="8"/>

  <!-- Title -->
  <text x="450" y="38" text-anchor="middle" fill="#f1f5f9" font-size="18" font-weight="700">Regent Architecture</text>
  <text x="450" y="58" text-anchor="middle" fill="#64748b" font-size="12">Mamba-2 SSM with Grouped-Query Attention, Verification Head, and EPG Encoder</text>

  <!-- ============ INPUT LAYER ============ -->

  <!-- Knowledge Nodes -->
  <rect x="40" y="90" width="160" height="44" rx="6" fill="#1e1b2e" stroke="#a78bfa" stroke-width="1.5"/>
  <text x="120" y="108" text-anchor="middle" fill="#a78bfa" font-size="10" font-weight="600">EPG NODES</text>
  <text x="120" y="124" text-anchor="middle" fill="#94a3b8" font-size="10">typed, scored, categorized</text>

  <!-- EPG Encoder -->
  <rect x="260" y="90" width="130" height="44" rx="6" fill="#1a1a2e" stroke="#4b5563" stroke-width="1"/>
  <text x="325" y="116" text-anchor="middle" fill="#e2e8f0" font-size="11" font-weight="500">EPG Encoder</text>

  <!-- Arrow: Knowledge Nodes → Node Encoder -->
  <line x1="200" y1="112" x2="252" y2="112" stroke="#a78bfa" stroke-width="1.5" marker-end="url(#arrow-accent)"/>

  <!-- Prefix Tokens -->
  <rect x="450" y="90" width="120" height="44" rx="6" fill="#1a1a2e" stroke="#4b5563" stroke-width="1"/>
  <text x="510" y="116" text-anchor="middle" fill="#e2e8f0" font-size="11" font-weight="500">Prefix Tokens</text>

  <!-- Arrow: Node Encoder → Prefix Tokens -->
  <line x1="390" y1="112" x2="442" y2="112" stroke="#94a3b8" stroke-width="1.5" marker-end="url(#arrow)"/>

  <!-- Behavioral Vector -->
  <rect x="40" y="152" width="160" height="44" rx="6" fill="#1e2b1e" stroke="#10b981" stroke-width="1.5"/>
  <text x="120" y="170" text-anchor="middle" fill="#10b981" font-size="10" font-weight="600">ESSENCE VECTOR</text>
  <text x="120" y="186" text-anchor="middle" fill="#94a3b8" font-size="10">7 scalars, injected every 8 layers</text>

  <!-- Token IDs -->
  <rect x="40" y="214" width="160" height="44" rx="6" fill="#1e2434" stroke="#60a5fa" stroke-width="1.5"/>
  <text x="120" y="232" text-anchor="middle" fill="#60a5fa" font-size="10" font-weight="600">TOKEN IDS</text>
  <text x="120" y="248" text-anchor="middle" fill="#94a3b8" font-size="10">input sequence</text>

  <!-- Embedding -->
  <rect x="260" y="214" width="130" height="44" rx="6" fill="#1a1a2e" stroke="#4b5563" stroke-width="1"/>
  <text x="325" y="240" text-anchor="middle" fill="#e2e8f0" font-size="11" font-weight="500">Embedding</text>

  <!-- Arrow: Token IDs → Embedding -->
  <line x1="200" y1="236" x2="252" y2="236" stroke="#60a5fa" stroke-width="1.5" marker-end="url(#arrow)"/>

  <!-- Concatenate -->
  <rect x="630" y="150" width="120" height="50" rx="6" fill="#1a1a2e" stroke="#f59e0b" stroke-width="1.5"/>
  <text x="690" y="179" text-anchor="middle" fill="#f59e0b" font-size="11" font-weight="600">Concatenate</text>

  <!-- Arrow: Prefix Tokens → Concatenate -->
  <line x1="570" y1="112" x2="610" y2="112" stroke="#94a3b8" stroke-width="1.5"/>
  <line x1="610" y1="112" x2="610" y2="175" stroke="#94a3b8" stroke-width="1.5"/>
  <line x1="610" y1="175" x2="622" y2="175" stroke="#94a3b8" stroke-width="1.5" marker-end="url(#arrow)"/>

  <!-- Arrow: Embedding → Concatenate -->
  <line x1="390" y1="236" x2="610" y2="236" stroke="#94a3b8" stroke-width="1.5"/>
  <line x1="610" y1="236" x2="610" y2="175" stroke="#94a3b8" stroke-width="1.5"/>

  <!-- Arrow: Behavioral Vector → side label -->
  <line x1="200" y1="174" x2="460" y2="174" stroke="#10b981" stroke-width="1" stroke-dasharray="6,3" marker-end="url(#arrow-green)"/>
  <text x="470" y="170" fill="#10b981" font-size="9">injected every 8 layers</text>

  <!-- ============ HYBRID BACKBONE ============ -->

  <!-- Main backbone box -->
  <rect x="250" y="300" width="400" height="220" rx="8" fill="#12141f" stroke="#6366f1" stroke-width="2"/>

  <!-- Backbone title -->
  <text x="450" y="328" text-anchor="middle" fill="#e2e8f0" font-size="14" font-weight="700">Hybrid Backbone</text>
  <text x="450" y="346" text-anchor="middle" fill="#6366f1" font-size="11">Mamba-2 State-Space Model + Grouped-Query Attention</text>

  <!-- Layer blocks -->
  <!-- Recurrent layers -->
  <rect x="280" y="365" width="155" height="32" rx="4" fill="#1e1b2e" stroke="#8b5cf6" stroke-width="1"/>
  <text x="357" y="385" text-anchor="middle" fill="#c4b5fd" font-size="10" font-weight="500">Layers 1-7: Recurrent</text>

  <rect x="280" y="405" width="155" height="32" rx="4" fill="#1a2332" stroke="#3b82f6" stroke-width="1"/>
  <text x="357" y="425" text-anchor="middle" fill="#93c5fd" font-size="10" font-weight="500">Layer 8: Attention</text>

  <rect x="280" y="445" width="155" height="32" rx="4" fill="#1e1b2e" stroke="#8b5cf6" stroke-width="1"/>
  <text x="357" y="465" text-anchor="middle" fill="#c4b5fd" font-size="10" font-weight="500">Layers 9-15: Recurrent</text>

  <rect x="280" y="485" width="155" height="32" rx="4" fill="#1a2332" stroke="#3b82f6" stroke-width="1"/>
  <text x="357" y="505" text-anchor="middle" fill="#93c5fd" font-size="10" font-weight="500">Layer 16: Attention</text>

  <text x="357" y="525" text-anchor="middle" fill="#4b5563" font-size="12" font-weight="500">... pattern repeats ...</text>

  <!-- Summary stats -->
  <text x="530" y="386" fill="#94a3b8" font-size="10">48 to 64 layers (config-dependent)</text>
  <text x="530" y="404" fill="#94a3b8" font-size="10">~7:1 recurrent-to-attention ratio</text>
  <text x="530" y="428" fill="#94a3b8" font-size="10">~1 GB fixed memory (7B config)</text>
  <text x="530" y="446" fill="#94a3b8" font-size="10">regardless of session length</text>

  <text x="530" y="476" fill="#94a3b8" font-size="10">Thinking: [THINK]...[/THINK]</text>
  <text x="530" y="494" fill="#94a3b8" font-size="10">Tool calls: [TOOL_CALL]...[TOOL_END]</text>

  <!-- Arrow: Concatenate → Backbone -->
  <line x1="690" y1="200" x2="690" y2="260" stroke="#94a3b8" stroke-width="1.5"/>
  <line x1="690" y1="260" x2="450" y2="260" stroke="#94a3b8" stroke-width="1.5"/>
  <line x1="450" y1="260" x2="450" y2="292" stroke="#94a3b8" stroke-width="1.5" marker-end="url(#arrow)"/>

  <!-- ============ OUTPUT SPLIT ============ -->

  <!-- Split line from backbone -->
  <line x1="450" y1="520" x2="450" y2="565" stroke="#94a3b8" stroke-width="1.5"/>

  <!-- Fork -->
  <line x1="320" y1="565" x2="580" y2="565" stroke="#94a3b8" stroke-width="1.5"/>
  <line x1="320" y1="565" x2="320" y2="590" stroke="#94a3b8" stroke-width="1.5" marker-end="url(#arrow)"/>
  <line x1="580" y1="565" x2="580" y2="590" stroke="#94a3b8" stroke-width="1.5" marker-end="url(#arrow)"/>

  <!-- Gen Head -->
  <rect x="230" y="598" width="180" height="80" rx="8" fill="#1a2332" stroke="#60a5fa" stroke-width="2"/>
  <text x="320" y="624" text-anchor="middle" fill="#60a5fa" font-size="13" font-weight="700">Gen Head</text>
  <text x="320" y="644" text-anchor="middle" fill="#94a3b8" font-size="11">next token</text>
  <text x="320" y="662" text-anchor="middle" fill="#64748b" font-size="10">standard language modeling</text>

  <!-- Ver Head -->
  <rect x="490" y="598" width="180" height="80" rx="8" fill="#1e2b1e" stroke="#10b981" stroke-width="2"/>
  <text x="580" y="624" text-anchor="middle" fill="#10b981" font-size="13" font-weight="700">Ver Head</text>
  <text x="580" y="644" text-anchor="middle" fill="#94a3b8" font-size="11">accuracy score [0, 1]</text>
  <text x="580" y="662" text-anchor="middle" fill="#64748b" font-size="10">per word, same pass, negligible cost</text>

  <!-- Bottom label -->
  <text x="450" y="710" text-anchor="middle" fill="#475569" font-size="10">Both heads read the same internal state in one forward pass. No second model. No extra inference cost.</text>

  <!-- Alchymia credit -->
  <text x="860" y="710" text-anchor="end" fill="#334155" font-size="9">alchymia.ai</text>
</svg>
